/* XPM */
static const char *filter_png[] = {
/* columns rows colors chars-per-pixel */
"16 16 76 1 ",
"  c #525560",
". c #535662",
"X c #535762",
"o c #525663",
"O c #545763",
"+ c #545864",
"@ c #555864",
"# c #565965",
"$ c #565B67",
"% c #585A66",
"& c #595B67",
"* c #575C69",
"= c #585C68",
"- c #585C69",
"; c #5A5C68",
": c #5A5C69",
"> c #5B5C6A",
", c #5D5F6C",
"< c #60616E",
"1 c #60616F",
"2 c #60626F",
"3 c #616271",
"4 c #656675",
"5 c #676777",
"6 c #686676",
"7 c #686C76",
"8 c #696979",
"9 c #6A6A7A",
"0 c #6B6F79",
"q c #6C6F79",
"w c #6E6F7D",
"e c #6F707D",
"r c #706F80",
"t c #727081",
"y c #727082",
"u c #727182",
"i c #737182",
"p c #737183",
"a c #767486",
"s c #767983",
"d c #79778A",
"f c #7B778C",
"g c #7A788B",
"h c #7C7A8D",
"j c #868297",
"k c #878497",
"l c #888497",
"z c #8A8897",
"x c #8E8B9D",
"c c #948CA5",
"v c #948DA6",
"b c #978EA7",
"n c #9C92AC",
"m c #9D94AD",
"M c #A096B1",
"N c #A198B2",
"B c #A399B3",
"V c #A89CB8",
"C c #A89EB9",
"Z c #A99FBA",
"A c #AB9FBB",
"S c #ABA1BC",
"D c #AFA3BF",
"F c #AFA4C0",
"G c #B0A4C1",
"H c #B1A5C2",
"J c #B3A7C4",
"K c #B6AAC8",
"L c #B7AAC8",
"P c #B8ABC9",
"I c #CEC8D7",
"U c #CEC8D8",
"Y c #E9E5EE",
"T c #EFECF3",
"R c #F4F1F6",
"E c None",
/* pixels */
"EEEEEEEEEEEEEEEE",
"EEEX$6tgfr5:&EEE",
"E dxUYTRRTYIzi#E",
"EaJlw70ssq7ekByE",
"E@FPPPPHZSmjuM=E",
"EE%FPPPN9phvn,EE",
"EEE=FPPPPPPV<EEE",
"EEEE-GPPPPA2EEEE",
"EEEEE-GPPD1EEEEE",
"EEEEEE3LK4EEEEEE",
"EEEEEEOCB>EEEEEE",
"EEEEEEomb;EEEEEE",
"EEEEEEomc*EEEEEE",
"EEEEEE.8+EEEEEEE",
"EEEEEEEEEEEEEEEE",
"EEEEEEEEEEEEEEEE"
};
