/* XPM */
static const char *logo4_64_png[] = {
/* columns rows colors chars-per-pixel */
"64 64 143 2 ",
"   c #0A1B54",
".  c #0A1C54",
"X  c #0A1D58",
"o  c #0A1D5A",
"O  c #0B1D5A",
"+  c #0A1D5B",
"@  c #0B1E5A",
"#  c #0B1E5B",
"$  c #0C1E5B",
"%  c #0C1F5B",
"&  c #0C1F5C",
"*  c #0D1F5C",
"=  c #0D205C",
"-  c #0E215D",
";  c #0F225D",
":  c #10235E",
">  c #11235E",
",  c #10235F",
"<  c #11245F",
"1  c #12245F",
"2  c #12255F",
"3  c #122560",
"4  c #132560",
"5  c #142661",
"6  c #152761",
"7  c #192B65",
"8  c #1D2F67",
"9  c #1E3067",
"0  c #1F3067",
"q  c #1F3068",
"w  c #22336A",
"e  c #23346B",
"r  c #293A6F",
"t  c #2B3B70",
"y  c #2E3E72",
"u  c #304073",
"i  c #314074",
"p  c #324275",
"a  c #334275",
"s  c #334375",
"d  c #354577",
"f  c #384779",
"g  c #3C4C7C",
"h  c #3D4C7D",
"j  c #3F4E7D",
"k  c #3F4E7E",
"l  c #425180",
"z  c #465482",
"x  c #495784",
"c  c #4A5885",
"v  c #4E5B87",
"b  c #505D89",
"n  c #505E89",
"m  c #515F89",
"M  c #505E8A",
"N  c #525F8A",
"B  c #54618C",
"V  c #55628C",
"C  c #57648E",
"Z  c #5B6890",
"A  c #5C6992",
"S  c #5D6A92",
"D  c #5F6C93",
"F  c #606C94",
"G  c #616D94",
"H  c #606D95",
"J  c #626E95",
"K  c #636F96",
"L  c #677299",
"P  c #677399",
"I  c #677499",
"U  c #6A759A",
"Y  c #6B769B",
"T  c #6B779B",
"R  c #6C779B",
"E  c #727DA0",
"W  c #7681A3",
"Q  c #7781A3",
"!  c #7A83A5",
"~  c #818BA9",
"^  c #818BAA",
"/  c #828BAB",
"(  c #8690AD",
")  c #8B94B0",
"_  c #8E96B2",
"`  c #8E97B2",
"'  c #8F98B3",
"]  c #969EB8",
"[  c #9BA3BC",
"{  c #9FA7BE",
"}  c #A1A8BF",
"|  c #A5ACC2",
" . c #A6ADC3",
".. c #A8AFC4",
"X. c #A8AFC5",
"o. c #A9AFC5",
"O. c #ABB1C6",
"+. c #B3B9CC",
"@. c #B7BDCF",
"#. c #B9BECF",
"$. c #B8BDD0",
"%. c #BAC0D1",
"&. c #C0C5D4",
"*. c #C2C7D6",
"=. c #C5CAD8",
"-. c #C6CBD8",
";. c #C7CBD9",
":. c #C8CCDA",
">. c #CFD3DF",
",. c #D1D5E0",
"<. c #D2D5E0",
"1. c #D3D7E1",
"2. c #D7D9E4",
"3. c #D7DAE4",
"4. c #DADDE6",
"5. c #DEE1E9",
"6. c #E0E3EA",
"7. c #E1E3EB",
"8. c #E3E5EC",
"9. c #E4E6EC",
"0. c #E4E6ED",
"q. c #E7E9EF",
"w. c #E8E9EF",
"e. c #E9EBF0",
"r. c #EFF0F4",
"t. c #F0F1F5",
"y. c #F2F3F6",
"u. c #F3F4F7",
"i. c #F4F5F7",
"p. c #F6F6F9",
"a. c #F7F8FA",
"s. c #F8F8FA",
"d. c #F9F9FA",
"f. c #FAFAFB",
"g. c #FBFBFC",
"h. c #FCFCFD",
"j. c #FDFDFD",
"k. c #FDFDFE",
"l. c #FDFEFE",
"z. c #FEFEFE",
"x. c #FEFEFF",
"c. c white",
"v. c None",
/* pixels */
"v.v.v.v.v.v.v.v.v.v.v.v.v.o o o o o o o o o o o o o o o o o o o o o o o o o o o o o o o o o o o o o o v.v.v.v.v.v.v.v.v.v.v.v.v.",
"v.v.v.v.v.v.v.v.v.v.o o o o o o o o o o o o o o o o o o o o o o o o o o o o o o o o o o o o o o o o o o o o v.v.v.v.v.v.v.v.v.v.",
"v.v.v.v.v.v.v.v.o o o o o o o o o o o o o o o o o o o o o o o o o o o o o o o o o o o o o o o o o o o o o o o o v.v.v.v.v.v.v.v.",
"v.v.v.v.v.v.# o o o o o o o o o o o o o o o o o o o o o o o o o o o o o o o o o o o o o o o o o o o o o o o o o o # v.v.v.v.v.v.",
"v.v.v.v.v.+ o o o o o o o o o o o o o o o o o o o o o o o o o o o o o o o o o o o o o o o o o o o o o o o o o o o o + v.v.v.v.v.",
"v.v.v.v.+ o o o o o o o o o o o o o o o o o o o o o o o o o o o o o o o o o o o o o o o o o o o o o o o o o o o o o o + v.v.v.v.",
"v.v.v.O o o o o o o o o o o o o o o o o o o o o o o o o o o o o o o o o o o o o o o o o o o o o o o o o o o o o o o o o O v.v.v.",
"v.v.v.o o o o o o o o o o o o o o o o o o o o o o o o o o o o o o o o o o o o o o o o o o o o o o o o o o o o o o o o o o v.v.v.",
"v.v.o o o o o o o o o o o o o o o o o o o o o o o o o o o o o o o o o o o o o o o o o o o o o o o o o o o o o o o o o o o o v.v.",
"v.v.o o o o o o o o o o o o o o o o o o o o o o o o o o o o o o o o o o o o o o o o o o o o o o o o o o o o o o o o o o o o v.v.",
"v.o o o o o o o o o o o o o o o o o o o o o o o o o o o o o o o o o o o o o o o o o o o o o o o o o o o o o o o o o o o o o o v.",
"v.o o o o o o o o o o o o o o o o o o o o o o o o o o o o o o p c.c.c.c.c.c.c.c.c.c.c.% o o o o o o o o o o o o o o o o o o o v.",
"v.o o o o o o o o o o o o o o o o o o o o o o o o o o o o o o p c.J G G G G G G G ) c.% o o o o o o o o o o o o o o o o o o o v.",
"o o o o o o o o o o o o o o o o o o o o o o o o o o o o o o o p c.: o o o o o o o N c.% o o o o o o o o o o o o o o o o o o o o ",
"o o o o o o o o o o o o o o o o o o o o o o o o o o o o o o o p c.: o o o o o o o N c.% o o o o o o o o o o o o o o o o o o o o ",
"o o o o o o o o o o o o o o o o o o o o o o o o o o o o o o o p c.: o o o o o o o N c.% o o o o o o o o o o o o o o o o o o o o ",
"o o o o o o o o o o o o o o o o o o o o o o o o o o o o o o o p c.: o o o o o o o N c.% o o o o o o o o o o o o o o o o o o o o ",
"o o o o o o o o o o o o o o o o o o o o o o o o o o o o o o o p c.: o o o o o o o N c.% o o o o o o o o o o o o o o o o o o o o ",
"o o o o o o o o o o o o o o o o o o o o o o o o o o o o o o o p c.: o o o o o o o N c.% o o o o o o o o o o o o o o o o o o o o ",
"o o o o o o o o o o o o o o o o o o o o o o o o o o o o o o o p c.: o o o o o o o 2 r o o o o o o o o o o o o o o o o o o o o o ",
"o o o o o o o o o o o o o o o i i i i i i i i i i i i i i i = p c.s i i i i i i o 6 y y y y y y y o o o o o o o o o o o o o o o ",
"o o o o o o o o o o o o o o o c.c.c.c.c.c.c.c.c.c.c.c.c.c.c.q a c.c.c.c.c.c.c.c.o m c.c.c.c.c.c.c.o o o o o o o o o o o o o o o ",
"o o o o o o o o o o o o o o o c.8 8 8 8 8 8 8 8 8 8 8 8 8 8 $ & 8 8 8 8 8 8 8 8 o m c.q 9 9 9 / c.o o o o o o o o o o o o o o o ",
"o o o o o o o o o o o o o o o c.o o o o o o o o o o o o o o o 6 x % o o o o o o o m c.= o o o ! c.o o o o o o o o o o o o o o o ",
"o o o o o o o o o o o o o o o c.o o o o o o o o o o o o o o o p c.: o o o o o o o m c.= o o o ! c.o o o o o o o o o o o o o o o ",
"o o o o o o o o o o o o o o o c.o o o o o o o o o o o o o o o p c.: o o o o o o o % 3 o o o o ! c.o o o o o o o o o o o o o o o ",
"o o o o o o o o o o o o o o o c.o o o o o o o o o o o o o o o p c.: o o o t F F F F G # u H H X.c.o o o o o o o o o o o o o o o ",
"o o o o o o o o o o o o o o o c.o o o o o o o o o o o o o o o p c.: o o o L c.c.c.c.c.= W c.c.c.c.o o o o o o o o o o o o o o o ",
"o o o o o o o o o o o o o o o c.o o o o o o o o o o o o o o o p c.: o o o L c.c.c.c.c.= = 1 1 1 1 o o o o o o o o o o o o o o o ",
"o o o o o o o o o o o o o o o c.o o o o o o o o o o o o o o o p c.: o o o L c.c.c.c.c.= o o o o o o o o o o o o o o o o o o o o ",
"o o o o o o o o o o o o o o o c.o o o o o o o o o o o o o o o p c.: o o o L c.c.c.c.c.= o o o o o o o o o o o o o o o o o o o o ",
"o o o o o o o o o o o o o o o c.o o o o o o o o o o o o o o o p c.: o o o L c.c.c.c.c.= o o o o o o o o o o o o o o o o o o o o ",
"o o o o o o o o o o o o o o o c.o o o o o o o o o o o o o o o p c.: o o o o o o o o o o o o o o o o o o o o o o o o o o o o o o ",
"o o o o o o o o o o o o o o o c.o o o o o o o o o o o o o o o p c.: o o o o o o o o o o o o o o o o o o o o o o o o o o o o o o ",
"o o o o o o o o o o o o o o o c.o o o o o o o o o o o o o o o p c.: o o o o o o o o o o o o o o o o o o o o o o o o o o o o o o ",
"o o o o o o o o o o o o o o o c.o o o o o o o o o o o o o o o p c.: o o o o o o o o o o o o o o o o o o o o o o o o o o o o o o ",
"o o o o o o o o o o o o o o o c.o o o o o o o o o o o o o o o p c.: o o o o o o o o o o o o o o o o o o o o o o o o o o o o o o ",
"o o o o o o o o o o o o o o o c...O.O.O.O.O.O.O.O.O.O.O.O.O.O.$.c.: o o o o o o o o o o o o o o o o o o o o o o o o o o o o o o ",
"o o o o o o o o o o o o o o o c.c.c.c.c.c.c.c.c.c.c.c.c.c.c.c.c.c.: o o o o o o o o o o o o o o o o o o o o o o o o o o o o o o ",
"o o o o o o o o o o o o o o o * * * * * * * * * * * * * * * * * = o o o o o o o o o o o o o o o o o o o o o o o o o o o o o o o ",
"o o o o o o o o o o o o o o o o o o o o o o o o o o o o o o o o o o o o o o o o o o o o o o o o o o o o o o o o o o o o o o o o ",
"o o o o o o o o o o o o o o o o o o o o o o o o o o o o o o o o o o o o o o o o o o o o o o o o o o o o o o o o o o o o o o o o ",
"o o o o o o o o o o o o o o o o o o o o o o o o o o o o o o o o o o o o o o o o o o o o o o o o o o o o o o o o o o o o o o o o ",
"o o o o o o o o o o o o o o o ~ c o o o o o o o o o o o o o o 5 [ =.* ^ D o o o o o o o o o o o o o o o o o o o o o o o o o o o ",
"o o o o o o o o o o o o o o o c.' o o o o o o o o o o o o o o f.x.] ; c.#.o o o o o o o o o o o o o o o o o o o o o o o o o o o ",
"o o o o o o o o o o o o o o o c.' o o 2 4 o o - S n o > 2 o 2 c.8.< ; c.#.o o 2 3 o o * C C % , 2 o o o o o o o o o o o o o o o ",
"o o o o o o o o o o o o o o o c.' o ,.c.c o ..z.c.c.a.5.c.o j.c.c.w.; c.#.o +.c.P o ! k.c.c.h.3.c.o o o o o o o o o o o o o o o ",
"o o o o o o o o o o o o o o o c.' ,.c.l o M c.t.7 2 _ c.c.o & c.7.= ; c.#.o.c.D o w c.i.0 < I c.c.o o o o o o o o o o o o o o o ",
"o o o o o o o o o o o o o o o c.d.c.g o o <.c.= o o o r.c.o o c.6.o ; c.g.c.A o o { c.9 o o o 9.c.o o o o o o o o o o o o o o o ",
"o o o o o o o o o o o o o o o c.} c.&.o o 4.c.# o o o 0.c.o o c.6.o ; c.*.l.q.o o +.c.= o o o 1.c.o o o o o o o o o o o o o o o ",
"o o o o o o o o o o o o o o o c.' E c.Q o ( c.` o o h c.c.o o c.6.o ; c.#.v c. .o j c.%.@ o e x.c.o o o o o o o o o o o o o o o ",
"v.o o o o o o o o o o o o o o c.' o ;.c.f o e.c.p.u.c.y.c.o o c.6.o ; c.#.o | c.V o >.c.s.y.x.t.c.o o o o o o o o o o o o o o v.",
"v.o o o o o o o o o o o o o o R k o = R U o % K 2.@.d Z R o o R F o % R b o o Y T o # B :.-.z V R o o o o o o o o o o o o o o v.",
"v.o o o o o o o o o o o o o o o o o o o o o o o o o o o o o o o o o o o o o o o o o o o o o o o o o o o o o o o o o o o o o o v.",
"v.v.o o o o o o o o o o o o o o o o o o o o o o o o o o o o o o o o o o o o o o o o o o o o o o o o o o o o o o o o o o o o v.v.",
"v.v.o o o o o o o o o o o o o o o o o o o o o o o o o o o o o o o o o o o o o o o o o o o o o o o o o o o o o o o o o o o o v.v.",
"v.v.v.o o o o o o o o o o o o o o o o o o o o o o o o o o o o o o o o o o o o o o o o o o o o o o o o o o o o o o o o o o v.v.v.",
"v.v.v.. o o o o o o o o o o o o o o o o o o o o o o o o o o o o o o o o o o o o o o o o o o o o o o o o o o o o o o o o . v.v.v.",
"v.v.v.v.X o o o o o o o o o o o o o o o o o o o o o o o o o o o o o o o o o o o o o o o o o o o o o o o o o o o o o o X v.v.v.v.",
"v.v.v.v.v.X o o o o o o o o o o o o o o o o o o o o o o o o o o o o o o o o o o o o o o o o o o o o o o o o o o o o X v.v.v.v.v.",
"v.v.v.v.v.v.  o o o o o o o o o o o o o o o o o o o o o o o o o o o o o o o o o o o o o o o o o o o o o o o o o o   v.v.v.v.v.v.",
"v.v.v.v.v.v.v.v.o o o o o o o o o o o o o o o o o o o o o o o o o o o o o o o o o o o o o o o o o o o o o o o o v.v.v.v.v.v.v.v.",
"v.v.v.v.v.v.v.v.v.v.o o o o o o o o o o o o o o o o o o o o o o o o o o o o o o o o o o o o o o o o o o o o v.v.v.v.v.v.v.v.v.v.",
"v.v.v.v.v.v.v.v.v.v.v.v.v.o o o o o o o o o o o o o o o o o o o o o o o o o o o o o o o o o o o o o o v.v.v.v.v.v.v.v.v.v.v.v.v."
};
