/* XPM */
static const char *match_png[] = {
/* columns rows colors chars-per-pixel */
"16 16 18 1 ",
"  c #3E50B4",
". c #3F51B4",
"X c #3F50B5",
"o c #3F51B5",
"O c #3E52B4",
"+ c #3F51B6",
"@ c #3F53B6",
"# c #3E56B7",
"$ c #3D5AB8",
"% c #3A68BD",
"& c #3389C6",
"* c #29BBD6",
"= c #26C7D9",
"- c #26C5DA",
"; c #25C6DA",
": c #26C6DA",
"> c #26C6DB",
", c None",
/* pixels */
",,,,,,,,,,,,,,,,",
",,,,,,,,,,,,,,,,",
",,,,,,,oo,,,,,,,",
",,,,,,oooX,,,,,,",
",,,,,,+oo+,,,,,,",
",,,,,,,oo,,,,,,,",
",,,,,,,oo,,,,,,,",
",,,,,,,oo,,,,,,,",
",,,,,,,o#,,,,,,,",
",,,,,,,o$,,,,,,,",
",,,,,,,o%,,,,,,,",
",,,,,,oo&=,,,,,,",
",,,,Ooo@*::>,,,,",
",,oooo.,,-::::,,",
",,o ,,,,,,,,;>,,",
",,,,,,,,,,,,,,,,"
};
