/* XPM */
static const char *play_png[] = {
/* columns rows colors chars-per-pixel */
"16 16 36 1 ",
"  c #34564F",
". c #375D53",
"X c #3B6357",
"o c #3C6759",
"O c #3D6B5A",
"+ c #41725F",
"@ c #407260",
"# c #427662",
"$ c #427663",
"% c #437763",
"& c #457966",
"* c #447B66",
"= c #46816A",
"- c #47826B",
"; c #4B8A70",
": c #4C8B72",
"> c #4D8F73",
", c #4C9073",
"< c #529B7B",
"1 c #529C7C",
"2 c #529D7C",
"3 c #529E7E",
"4 c #539F7E",
"5 c #54A17F",
"6 c #55A280",
"7 c #56A683",
"8 c #57A984",
"9 c #57A985",
"0 c #5BB18A",
"q c #5CB38B",
"w c #5DB78E",
"e c #5DB88E",
"r c #5EBC91",
"t c #5FBD91",
"y c #60BE92",
"u c None",
/* pixels */
"uuuuuuuuuuuuuuuu",
"uuuuuuuuuuuuuuuu",
"uuu.uuuuuuuuuuuu",
"uuu#1*uuuuuuuuuu",
"uuu@yq3&uuuuuuuu",
"uuu@yyy8,ouuuuuu",
"uuu@yyyyr5;Ouuuu",
"uuu@yyyyyyw6=uuu",
"uuu@yyyyyy02%uuu",
"uuu@yyyye4- uuuu",
"uuu@yyt9:Xuuuuuu",
"uuu@y7>+uuuuuuuu",
"uuu#<$uuuuuuuuuu",
"uuu.uuuuuuuuuuuu",
"uuuuuuuuuuuuuuuu",
"uuuuuuuuuuuuuuuu"
};
