/* XPM */
static const char *stop_png[] = {
/* columns rows colors chars-per-pixel */
"16 16 20 1 ",
"  c #964250",
". c #974250",
"X c #994451",
"o c #994452",
"O c #C14E5D",
"+ c #C14E5E",
"@ c #C14F5E",
"# c #C44F5D",
"$ c #C4505E",
"% c #C74F60",
"& c #C84F60",
"* c #D05262",
"= c #D35464",
"- c #D45465",
"; c #E25768",
": c #E65769",
"> c #E65868",
", c #EF5B6C",
"< c #F05B6C",
"1 c None",
/* pixels */
"1111111111111111",
"1111111111111111",
"1111111111111111",
"111o+&&&&&*;X111",
"111$<<<<<<<<>111",
"111%<<<<<<<<:111",
"111%<<<<<<<<-111",
"111%<<<<<<<<=111",
"111%<<<<<<<<%111",
"111%<<<<<<<<%111",
"111%<<<<<<<<%111",
"111$,<<<<<<,#111",
"111.@&&&&&&O 111",
"1111111111111111",
"1111111111111111",
"1111111111111111"
};
